<svg width="162" height="24" viewBox="0 0 162 24" fill="none" xmlns="http://www.w3.org/2000/svg">
<path d="M5.69469 23V10.8633L16.5 5.05723L10.7688 1L0 6.80604V18.9777L5.69469 23Z" fill="#133C55"/>
<path d="M15.9674 18.1198L9.5695 21.5682V13.1232L15.9674 9.92114V18.1198Z" fill="#133C55"/>
<path d="M37.76 19H35.34V12.94H28.68V19H26.28V4.82H28.68V10.68H35.34V4.82H37.76V19ZM45.2038 17.22C46.6438 17.22 47.9238 16.16 47.9238 14.12C47.9238 12.1 46.6438 11.06 45.2038 11.06C43.7838 11.06 42.4838 12.1 42.4838 14.12C42.4838 16.14 43.7838 17.22 45.2038 17.22ZM45.2038 8.96C48.1238 8.96 50.2638 11.14 50.2638 14.12C50.2638 17.12 48.1238 19.3 45.2038 19.3C42.3038 19.3 40.1638 17.12 40.1638 14.12C40.1638 11.14 42.3038 8.96 45.2038 8.96ZM58.862 17.92C58.382 18.8 57.242 19.28 56.102 19.28C53.782 19.28 52.422 17.56 52.422 15.4V9.26H54.742V14.98C54.742 16.18 55.302 17.2 56.702 17.2C58.042 17.2 58.742 16.3 58.742 15.02V9.26H61.062V17.22C61.062 18.02 61.122 18.64 61.162 19H58.942C58.902 18.78 58.862 18.32 58.862 17.92ZM63.2678 16.36L65.2878 15.8C65.3678 16.68 66.0278 17.46 67.2678 17.46C68.2278 17.46 68.7278 16.94 68.7278 16.34C68.7278 15.82 68.3678 15.42 67.5878 15.26L66.1478 14.94C64.4278 14.56 63.5278 13.44 63.5278 12.1C63.5278 10.4 65.0878 8.96 67.1078 8.96C69.8278 8.96 70.7078 10.72 70.8678 11.68L68.9078 12.24C68.8278 11.68 68.4078 10.78 67.1078 10.78C66.2878 10.78 65.7078 11.3 65.7078 11.9C65.7078 12.42 66.0878 12.8 66.6878 12.92L68.1678 13.22C70.0078 13.62 70.9678 14.74 70.9678 16.18C70.9678 17.66 69.7678 19.3 67.2878 19.3C64.4678 19.3 63.3878 17.46 63.2678 16.36ZM75.0047 13.06H79.7847C79.7447 11.92 78.9847 10.9 77.3847 10.9C75.9247 10.9 75.0847 12.02 75.0047 13.06ZM80.0447 15.6L82.0047 16.22C81.4847 17.92 79.9447 19.3 77.6047 19.3C74.9647 19.3 72.6247 17.38 72.6247 14.08C72.6247 11 74.9047 8.96 77.3647 8.96C80.3647 8.96 82.1247 10.94 82.1247 14.02C82.1247 14.4 82.0847 14.72 82.0647 14.76H74.9447C75.0047 16.24 76.1647 17.3 77.6047 17.3C79.0047 17.3 79.7247 16.56 80.0447 15.6ZM94.2217 19L92.8817 15.44H86.8817L85.5617 19H83.0217L88.5417 4.82H91.3217L96.8417 19H94.2217ZM89.8817 7.42L87.7217 13.22H92.0417L89.8817 7.42ZM102.683 11.1C101.263 11.1 100.003 12.16 100.003 14.12C100.003 16.08 101.263 17.18 102.723 17.18C104.243 17.18 104.943 16.12 105.163 15.38L107.203 16.12C106.743 17.64 105.283 19.3 102.723 19.3C99.8633 19.3 97.6833 17.08 97.6833 14.12C97.6833 11.12 99.8633 8.96 102.663 8.96C105.283 8.96 106.723 10.6 107.123 12.16L105.043 12.92C104.823 12.06 104.163 11.1 102.683 11.1ZM113.66 11.1C112.24 11.1 110.98 12.16 110.98 14.12C110.98 16.08 112.24 17.18 113.7 17.18C115.22 17.18 115.92 16.12 116.14 15.38L118.18 16.12C117.72 17.64 116.26 19.3 113.7 19.3C110.84 19.3 108.66 17.08 108.66 14.12C108.66 11.12 110.84 8.96 113.64 8.96C116.26 8.96 117.7 10.6 118.1 12.16L116.02 12.92C115.8 12.06 115.14 11.1 113.66 11.1ZM124.676 17.22C126.116 17.22 127.396 16.16 127.396 14.12C127.396 12.1 126.116 11.06 124.676 11.06C123.256 11.06 121.956 12.1 121.956 14.12C121.956 16.14 123.256 17.22 124.676 17.22ZM124.676 8.96C127.596 8.96 129.736 11.14 129.736 14.12C129.736 17.12 127.596 19.3 124.676 19.3C121.776 19.3 119.636 17.12 119.636 14.12C119.636 11.14 121.776 8.96 124.676 8.96ZM138.335 17.92C137.855 18.8 136.715 19.28 135.575 19.28C133.255 19.28 131.895 17.56 131.895 15.4V9.26H134.215V14.98C134.215 16.18 134.775 17.2 136.175 17.2C137.515 17.2 138.215 16.3 138.215 15.02V9.26H140.535V17.22C140.535 18.02 140.595 18.64 140.635 19H138.415C138.375 18.78 138.335 18.32 138.335 17.92ZM145.74 13.38V19H143.42V9.26H145.68V10.56C146.32 9.44 147.48 8.98 148.56 8.98C150.94 8.98 152.08 10.7 152.08 12.84V19H149.76V13.24C149.76 12.04 149.22 11.08 147.76 11.08C146.44 11.08 145.74 12.1 145.74 13.38ZM157.828 6.28V9.26H159.848V11.32H157.828V15.84C157.828 16.7 158.208 17.06 159.068 17.06C159.388 17.06 159.768 17 159.868 16.98V18.9C159.728 18.96 159.288 19.12 158.448 19.12C156.648 19.12 155.528 18.04 155.528 16.22V11.32H153.728V9.26H154.228C155.268 9.26 155.728 8.6 155.728 7.74V6.28H157.828Z" fill="#133C55"/>
</svg>
